<svg xmlns="http://www.w3.org/2000/svg" viewBox="0 0 489.93 92.62"><defs><style>.cls-1{fill:#231815;}</style></defs><g id="图层_2" data-name="图层 2"><g id="图层_1-2" data-name="图层 1"><path class="cls-1" d="M57.54,58a.53.53,0,0,0-.46.2,1.11,1.11,0,0,0-.17.66.9.9,0,0,0,.17.59.66.66,0,0,0,.49.19.67.67,0,0,0,.5-.19.9.9,0,0,0,.17-.59h0a1,1,0,0,0-.19-.66A.6.6,0,0,0,57.54,58Z"/><path class="cls-1" d="M53.68,55.84a.58.58,0,0,0-.49.2.89.89,0,0,0-.18.61.9.9,0,0,0,.18.62.58.58,0,0,0,.49.2.6.6,0,0,0,.49-.2,1,1,0,0,0,.17-.62h0a.94.94,0,0,0-.17-.61A.6.6,0,0,0,53.68,55.84Z"/><path class="cls-1" d="M84.67,36.18c-1.15-4.34-7.24-6.91-16-7.46a28.45,28.45,0,0,0-43.39-1.57,9.17,9.17,0,0,1,1.4-.83c3.76-1.91,8.29-.75,8.29-.75A12.36,12.36,0,0,1,40.9,29a10,10,0,0,1,2.18,8.73A3.18,3.18,0,0,1,43,38a9.63,9.63,0,0,1-7.69,7.18,8.45,8.45,0,0,0,4.78-5.63,7.89,7.89,0,0,0-5.9-9.3,7.77,7.77,0,0,0-9.3,5.9,9.09,9.09,0,0,0,1.63,7.18,12.88,12.88,0,0,0,2.77,2.89,14.15,14.15,0,0,0,7.58,2.58,18,18,0,0,0,9.9-2.77h0c7.12-4.75,14.5,0,14.5,0,6.65,3.87,10.8,1.71,10.8,1.71-3.82,4.74-10.46,1.48-10.46,1.48-7.31-3.34-11.49-.52-11.49-.52a28,28,0,0,1-9.19,3.94C28.22,54.81,22.1,46.29,22.1,46.29a14.53,14.53,0,0,1-2.5-8.68q0-.69.12-1.32A28.75,28.75,0,0,0,18.23,42,28.44,28.44,0,0,0,18,48.93s5.13,8.2,18.78,7.31l-.78.13c-1,.16-2.36.27-2.36.27-4.33.41-10.67.54-15.77-1.28h0c-2.75-1-4.55-2.44-5.05-4.36-.64-2.39.83-5.16,3.85-7.93-6.38,4.5-9.8,9.31-8.74,13.35,1.15,4.36,7.28,6.93,16,7.47A28.45,28.45,0,0,0,73.15,36.76c3.64,1,6,2.58,6.63,4.85s-.83,5.15-3.85,7.92C82.31,45,85.73,40.23,84.67,36.18ZM58.05,41.64A9,9,0,0,0,54,40.12a7.43,7.43,0,0,0-2.85.28,5.65,5.65,0,0,0-2,1.06l-.3.22a2.24,2.24,0,0,1-.55.24A1.49,1.49,0,0,1,47,41.45a1.43,1.43,0,0,1-.36-1.21,2.31,2.31,0,0,1,.54-.93c1.36-1.56,4.16-2,4.91-2.15l.19,0a8.76,8.76,0,0,1,7.26,2.78c3.41,3.92,6.6,3.2,6.6,3.2C62.65,45.3,58.05,41.64,58.05,41.64ZM50.92,60.57h-1V56.05l-.86.54V55.53l.87-.59h1Zm4.33-3.23A5.25,5.25,0,0,1,55,58a.93.93,0,0,1-.05.1.54.54,0,0,1,0,.11l-1.17,2.35H52.68l1.11-2.19a1.1,1.1,0,0,1-.26,0,1.4,1.4,0,0,1-.79-.22,1.44,1.44,0,0,1-.53-.61,2.38,2.38,0,0,1,0-1.84,1.37,1.37,0,0,1,.58-.63,1.74,1.74,0,0,1,.88-.21,1.76,1.76,0,0,1,.88.21,1.42,1.42,0,0,1,.57.64h0a2.19,2.19,0,0,1,.19,1A2.91,2.91,0,0,1,55.25,57.34ZM59,59.79a1.37,1.37,0,0,1-.57.62,1.8,1.8,0,0,1-.89.22,1.88,1.88,0,0,1-.88-.21,1.48,1.48,0,0,1-.57-.62,2.13,2.13,0,0,1-.19-.94A3.09,3.09,0,0,1,56,58.2a4.31,4.31,0,0,1,.21-.67,1.17,1.17,0,0,0,0-.11l.05-.11,1.2-2.37h1.08l-1.1,2.16h.2a1.54,1.54,0,0,1,.82.21,1.4,1.4,0,0,1,.54.61,2.38,2.38,0,0,1,.17.93A2.18,2.18,0,0,1,59,59.79ZM63.59,59a1.7,1.7,0,0,1-.44,1.23,1.66,1.66,0,0,1-1.24.45A1.53,1.53,0,0,1,60.23,59v-2.4a1.52,1.52,0,0,1,1.68-1.67,1.66,1.66,0,0,1,1.24.44,1.7,1.7,0,0,1,.44,1.23Z"/><path class="cls-1" d="M61.91,55.82a.7.7,0,0,0-.54.18.79.79,0,0,0-.16.55V59a.83.83,0,0,0,.16.56.74.74,0,0,0,.54.17.73.73,0,0,0,.53-.17.83.83,0,0,0,.17-.56v-2.4a.79.79,0,0,0-.17-.55A.68.68,0,0,0,61.91,55.82Z"/><path class="cls-1" d="M46.31,2.16A44.15,44.15,0,0,1,77.53,77.53,44.15,44.15,0,0,1,15.09,15.09,43.91,43.91,0,0,1,46.31,2.16m0-2.16A46.31,46.31,0,1,0,92.62,46.31,46.31,46.31,0,0,0,46.31,0"/><path class="cls-1" d="M12.72,63.65,9.85,65.11l-.2-.39,2.87-1.47Z"/><path class="cls-1" d="M11.77,67.3,14,66l.21.36L11.45,68l-.25-.43,1.44-2.73h0l-2.26,1.31-.21-.37L13,64.13l.27.46Z"/><path class="cls-1" d="M13.32,68.15,12.11,69l-.25-.37,2.67-1.81,1.26,1.85-.31.21-1-1.49-.83.57.89,1.31-.32.22Z"/><path class="cls-1" d="M16.52,72.19a1.58,1.58,0,1,1-2-2.47,1.54,1.54,0,0,1,2.33.17A1.56,1.56,0,0,1,16.52,72.19Zm-.27-.35a1.2,1.2,0,0,0,.34-1.72c-.48-.53-1.06-.55-1.75,0s-.74,1.11-.32,1.69A1.17,1.17,0,0,0,16.25,71.84Z"/><path class="cls-1" d="M17,73,16,74l-.31-.32L18,71.43l1,1.08c.49.52.53,1,.11,1.38a.83.83,0,0,1-.88.2.54.54,0,0,1-.18.7l-.4.43a.27.27,0,0,0-.12.33l-.05,0-.38-.4a5.18,5.18,0,0,1,.54-.6.52.52,0,0,0,0-.83Zm1.07-1-.8.76.7.74c.3.32.58.35.86.09a.5.5,0,0,0,0-.8Z"/><path class="cls-1" d="M20.25,78l-.32-.28,1.27-1.42.53-.61-2.48,1.42-.33-.29,1.13-2.63h0l-.37.45-.15.17-1.26,1.42L17.92,76l2.14-2.41.47.42-1.11,2.66,2.49-1.43.48.42Z"/><path class="cls-1" d="M22.8,78.8l-1-.78-.83.55-.35-.27,2.9-1.85.4.29-1,3.28-.38-.28Zm-.7-1,.81.6L23.38,77h0Z"/><path class="cls-1" d="M24.55,77.7l.2-.31,2.19,1.41-.2.31-.92-.59-1.54,2.4-.36-.23,1.54-2.4Z"/><path class="cls-1" d="M27.58,79.14,26,81.94l-.38-.22,1.61-2.8Z"/><path class="cls-1" d="M30,82.23A1.58,1.58,0,1,1,29.36,80,1.54,1.54,0,0,1,30,82.23Zm-.39-.2c.33-.77.2-1.34-.41-1.7S28,80.27,27.59,81s-.2,1.32.42,1.67S29.19,82.75,29.61,82Z"/><path class="cls-1" d="M32,84.11l1-2.42.39.16-1.2,3-.46-.18-.54-3h0l-1,2.42-.4-.16,1.21-3,.49.2Z"/><path class="cls-1" d="M36.88,83.89l-.39-.11c.09-.4-.11-.68-.6-.85s-.75,0-.85.35a.37.37,0,0,0,.26.49l.82.46a.83.83,0,0,1,.46,1c-.18.58-.67.76-1.48.55a1.32,1.32,0,0,1-.85-.53.88.88,0,0,1-.1-.87l.4.11c-.12.48.09.8.64,1s.87,0,1-.29-.05-.52-.52-.75l-.6-.32a.78.78,0,0,1-.45-.93A1,1,0,0,1,36,82.57Q37.12,82.9,36.88,83.89Z"/><path class="cls-1" d="M40,84.57l-.42-.09a.82.82,0,0,0-.74-.83c-.68-.11-1.11.25-1.3,1.06s.09,1.39.79,1.53c.48.09.84-.15,1.07-.7l.42.09a1.35,1.35,0,0,1-1.65.94c-.91-.22-1.27-.87-1.08-1.93s.87-1.5,1.82-1.36A1.22,1.22,0,0,1,40,84.57Z"/><path class="cls-1" d="M41.05,83.74l-.47,3.19-.44-.06.47-3.19Z"/><path class="cls-1" d="M43.76,86.89l0,.38-2.37-.22.31-3.21,2.33.22,0,.37-1.9-.18-.09,1,1.75.16,0,.39-1.75-.17-.1,1.07Z"/><path class="cls-1" d="M46.48,86.73l.05-2.61H47l-.06,3.22H46.4l-1.59-2.64h0l0,2.6h-.42l.06-3.23h.53Z"/><path class="cls-1" d="M50.15,84.9l-.42,0a.83.83,0,0,0-.94-.61c-.67.07-1,.53-1,1.36S48.26,87,49,87c.5,0,.78-.36.86-1l.43,0a1.34,1.34,0,0,1-1.35,1.34c-.94,0-1.46-.5-1.55-1.58s.45-1.68,1.41-1.78A1.2,1.2,0,0,1,50.15,84.9Z"/><path class="cls-1" d="M53.23,86.38l.05.38-2.35.34-.45-3.2,2.32-.32.05.36L51,84.21l.14,1L52.85,85l0,.38-1.74.25.15,1.06Z"/><path class="cls-1" d="M56.8,85.26l.73.54-.5.12-.39-.28a1.11,1.11,0,0,1-.81.62.84.84,0,0,1-1.12-.56,1,1,0,0,1,.45-1.16c-.3-.21-.47-.41-.49-.62a.71.71,0,0,1,.58-.88.66.66,0,0,1,.86.46,1,1,0,0,1-.36,1l.73.57a2.35,2.35,0,0,0,0-.53l.38-.09A2.06,2.06,0,0,1,56.8,85.26Zm-1.32-1a.73.73,0,0,0,.26-.65.32.32,0,0,0-.43-.26.32.32,0,0,0-.27.43A.92.92,0,0,0,55.48,84.28Zm.91,1.15-.94-.68c-.32.29-.44.56-.36.82s.32.43.7.39A.86.86,0,0,0,56.39,85.43Z"/><path class="cls-1" d="M57.89,82.71l-.12-.35,2.45-.88.13.35-1,.37,1,2.69-.4.14-1-2.69Z"/><path class="cls-1" d="M63.75,83l.16.36-2.18,1-1.29-3,2.14-.94.15.34L61,81.55l.4.92L63,81.76l.15.36-1.61.71.43,1Z"/><path class="cls-1" d="M65.77,79.86l-.38.19a.83.83,0,0,0-1.1-.17q-.89.53-.33,1.65c.41.79.94,1,1.57.68A.94.94,0,0,0,65.92,81l.38-.2a1.35,1.35,0,0,1-.68,1.77c-.85.41-1.54.14-2.06-.81a1.51,1.51,0,0,1,.55-2.2A1.22,1.22,0,0,1,65.77,79.86Z"/><path class="cls-1" d="M68.11,78.81l-.71-1.12.37-.23,1.73,2.72-.37.23-.81-1.26-1.42.91.8,1.26-.37.24L65.6,78.84,66,78.6l.71,1.12Z"/><path class="cls-1" d="M71.43,78,69.86,75.9l.33-.26,2,2.57-.39.3-2.88-1.09h0l1.58,2.08-.34.26-2-2.57.42-.32Z"/><path class="cls-1" d="M73.85,74.57a1.58,1.58,0,1,1-2.31-.22A1.55,1.55,0,0,1,73.85,74.57Zm-.33.3c-.6-.6-1.17-.68-1.73-.25s-.49,1.09.06,1.75a1.15,1.15,0,0,0,1.71.22A1.17,1.17,0,0,0,73.52,74.87Z"/><path class="cls-1" d="M73.28,72.82l2,2,1.14-1.18.28.27-1.44,1.5L73,73.13Z"/><path class="cls-1" d="M77.72,70.21a1.58,1.58,0,1,1-2.32.12A1.55,1.55,0,0,1,77.72,70.21Zm-.28.34c-.69-.51-1.27-.5-1.76,0s-.32,1.15.32,1.72a1.14,1.14,0,0,0,1.72,0A1.17,1.17,0,0,0,77.44,70.55Z"/><path class="cls-1" d="M79,68.82l-.3-.21.8-1.16,1.42,1-.16.24-.4-.15a1.32,1.32,0,0,1-.22,1.13,1.4,1.4,0,0,1-.84.64,1.72,1.72,0,0,1-1.41-.35,1.55,1.55,0,0,1-.51-2.21A1.27,1.27,0,0,1,79,67.2l-.24.35a.91.91,0,0,0-1.12.4c-.34.58-.17,1.12.49,1.62s1.31.47,1.72-.12a1.12,1.12,0,0,0,.2-.67,1,1,0,0,0-.52-.77Z"/><path class="cls-1" d="M80.83,66l1.13.65-.22.38-1.13-.65-2.27.09L78.6,66l1.8,0-.88-1.58.26-.44Z"/><path class="cls-1" d="M21.16,70.62l1.92-1.77.29.31L21,71.35,20.66,71l.81-3h0l-1.92,1.77-.29-.32,2.37-2.18.36.39Z"/><path class="cls-1" d="M23.7,72.57l-1-.87-.88.48-.32-.3,3-1.59.37.33L23.67,73.8l-.36-.32Zm-.61-1.06.75.67.6-1.38h0Z"/><path class="cls-1" d="M26.37,75.05,27.91,73l.34.25-1.9,2.6-.4-.29.22-3.07h0l-1.54,2.1-.34-.25,1.91-2.6.42.31Z"/><path class="cls-1" d="M27.53,75.33l.35.21-.12.2a.45.45,0,0,0,.15.7c.29.18.53.11.73-.21l1.23-2,.37.23-1.22,2a.83.83,0,0,1-1.27.3.79.79,0,0,1-.38-1.14Z"/><path class="cls-1" d="M31.39,75l-1.51,2.86-.39-.21L31,74.83Z"/><path class="cls-1" d="M33.06,78.69l1-2.39.39.17-1.29,3-.46-.2-.45-3h0l-1,2.39-.39-.17,1.29-3,.49.21Z"/><path class="cls-1" d="M36,78.94l.11-.35,1.34.42-.52,1.65-.27-.09,0-.42a1.31,1.31,0,0,1-1.14.12,1.41,1.41,0,0,1-.86-.62,1.76,1.76,0,0,1-.08-1.45,1.55,1.55,0,0,1,2-1.13,1.27,1.27,0,0,1,1,1.42l-.4-.13a.9.9,0,0,0-.72-.94c-.65-.16-1.12.15-1.4.94s-.07,1.38.62,1.6a1.05,1.05,0,0,0,.7,0,1,1,0,0,0,.58-.72Z"/><path class="cls-1" d="M42,78.39l.43.07-.32,2.06a1.17,1.17,0,0,1-1.49,1,1.09,1.09,0,0,1-1-1.3L40,78.06l.44.07-.32,2c-.08.59.14.92.66,1a.78.78,0,0,0,1-.75Z"/><path class="cls-1" d="M45.2,81.27l.15-2.61.42,0-.18,3.22-.49,0-1.49-2.7h0l-.15,2.61-.42,0,.18-3.22.53,0Z"/><path class="cls-1" d="M47.05,78.66l.06,3.22h-.44l-.06-3.23Z"/><path class="cls-1" d="M49.29,81.29l.7-2.82.49,0-.9,3.31-.48,0-1.45-3.11.5,0Z"/><path class="cls-1" d="M53.85,80.71l.07.38-2.34.43L51,78.34l2.31-.41.06.36-1.87.34.18,1,1.73-.32.07.39L51.75,80l.19,1.06Z"/><path class="cls-1" d="M54.93,79.41l.38,1.33-.42.13L54,77.76l1.44-.41c.69-.19,1.11,0,1.27.54a.83.83,0,0,1-.23.87c.27,0,.45.16.54.49l.19.55c0,.16.12.25.24.26l0,.07-.52.15a4.73,4.73,0,0,1-.29-.76.51.51,0,0,0-.72-.4ZM54.53,78l.3,1.07,1-.28q.63-.18.48-.72a.51.51,0,0,0-.71-.37Z"/><path class="cls-1" d="M59.67,76.83l-.38.15c-.17-.37-.5-.48-1-.31s-.6.45-.46.79a.38.38,0,0,0,.5.24l.93-.14a.83.83,0,0,1,1,.55c.21.56-.07,1-.84,1.33a1.36,1.36,0,0,1-1,.1.92.92,0,0,1-.61-.63l.39-.16c.2.46.56.58,1.1.38s.72-.49.6-.82-.35-.39-.87-.28l-.67.11a.78.78,0,0,1-.92-.47c-.21-.6,0-1,.68-1.33S59.4,76.21,59.67,76.83Z"/><path class="cls-1" d="M60.45,75.42l1.39,2.91-.4.19-1.39-2.91Z"/><path class="cls-1" d="M61.17,75.5,61,75.18l2.27-1.28.18.33-.95.53,1.39,2.49-.36.21L62.12,75Z"/><path class="cls-1" d="M65.89,74.44l.74,1.08-.37.25-.74-1.08-2.09-.89.43-.29,1.63.76-.11-1.81.42-.29Z"/><path class="cls-1" d="M70.53,70.18A1.58,1.58,0,1,1,68.22,70,1.54,1.54,0,0,1,70.53,70.18Zm-.32.3c-.61-.59-1.19-.67-1.74-.22s-.47,1.1.08,1.75a1.15,1.15,0,0,0,1.72.19A1.18,1.18,0,0,0,70.21,70.48Z"/><path class="cls-1" d="M71.45,69.37l1.09,1-.29.33-2.41-2.15,1.49-1.67.27.25-1.19,1.34.75.67,1-1.19.29.26Z"/><path class="cls-1" d="M15.22,25.13a.3.3,0,0,1-.08-.49.27.27,0,0,0,0-.08,1.41,1.41,0,0,1,.37-.4,1.45,1.45,0,0,0,.45-.79,9.07,9.07,0,0,0,.15-1,1.82,1.82,0,0,0-.41-.95s-.13-.17-.29-.42a2.5,2.5,0,0,0-.33-.39.93.93,0,0,1-.32-.43s-.08-.28.27-.57c0,0,.37-.29,1.39.13a.88.88,0,0,1,.35.31s.14.22.32.15c0,0,.25-.15.36,0a.22.22,0,0,1,.05.17,1.12,1.12,0,0,0,.07.44s.06.16-.25.49c0,0-.16.13-.07.67a2.71,2.71,0,0,1,0,.58,3.92,3.92,0,0,0,0,.82s0,.09.07.05a.17.17,0,0,0,.05-.13,1.65,1.65,0,0,1,.15-.69,15.31,15.31,0,0,0,.56-1.62,1,1,0,0,1,.14-.32.8.8,0,0,0,.12-.24s0-.06.1-.16.26-.27.37-.27.59,0,.7.27a.39.39,0,0,1,0,.16s0,.12.19.35A13,13,0,0,1,21,22.43a4.62,4.62,0,0,0,.55.82,2.57,2.57,0,0,1,.46.81,2.35,2.35,0,0,0,.4.58s.6.62.14,1.15a.54.54,0,0,1-.45.14,2.18,2.18,0,0,0-1.09.19,1.52,1.52,0,0,1-.9.06s-.2-.06-.22-.18,0-.1.14-.15a6.86,6.86,0,0,1,.88-.18,1.7,1.7,0,0,0,.59-.21s.32-.21.13-.39a9.62,9.62,0,0,1-1.81-2.35s-.34-.77-.51-1.13a6.77,6.77,0,0,0-.43-.86s-.14-.15-.2,0A4.6,4.6,0,0,0,18.27,22a6.8,6.8,0,0,1-.3,1.14.42.42,0,0,0,0,.23.05.05,0,0,0,.09,0,.48.48,0,0,1,.64,0s.13.08,0,.56a2.14,2.14,0,0,0-.09,1s0,.06,0,0a.46.46,0,0,1,.27,0s.18,0,.18.15a.61.61,0,0,0,.06.21s.09.1-.13.42a.22.22,0,0,0,.05.29s.05.05.08,0,0,0,0-.07,0-.27,0-.33a.22.22,0,0,1,.08-.16l.13-.11a.1.1,0,0,1,.09,0,.5.5,0,0,1,.2.11,1,1,0,0,1,.12.17.19.19,0,0,1,0,.12,1.1,1.1,0,0,0-.08.52s0,.09.12.12l.23.06a.42.42,0,0,1,.31.29,1,1,0,0,0,.05.17s.11.14-.22.5c0,0-.15.16-.26.13a2.23,2.23,0,0,1-1-.68s0,0,0-.07.12-.23,0-.33a.41.41,0,0,0-.31,0s-.24.06-.29-.11a.34.34,0,0,1,0-.2s.07-.35.16-.63c0,0,0-.06-.06-.07a.18.18,0,0,1-.16-.12,0,0,0,0,1,0,0,2.57,2.57,0,0,0-.16-1.25S18,24,18,24s0,0,0,.12,0,.25,0,.33-.1.12-.08.21,0,.17.18.51a.52.52,0,0,1,0,.49s-.05.07-.08.06a1.47,1.47,0,0,0-.23,0,.18.18,0,0,1-.12,0,.46.46,0,0,0-.25-.12.12.12,0,0,0-.11.13s0,.17-.22.38l-.07,0s-.09,0-.28-.16c0,0,0,0,0-.07a1.62,1.62,0,0,0,.18-.55,1.8,1.8,0,0,1,.19-.55.44.44,0,0,0,0-.36.84.84,0,0,1-.13-.41s0-.17-.1-.13-.18.05-.25.45a.5.5,0,0,1-.09.35l-.19.2a.89.89,0,0,1-.51.3A1.38,1.38,0,0,1,15.22,25.13Z"/><path class="cls-1" d="M16.73,27.12s-.08-.18.05-.24.1,0,.25.09a.88.88,0,0,0,.44.24,1.75,1.75,0,0,1,.85.29.77.77,0,0,1,.16,1,.24.24,0,0,1-.2.1.79.79,0,0,1-.5-.14,2.15,2.15,0,0,1-.32-.34A6,6,0,0,1,16.73,27.12Z"/><path class="cls-1" d="M23.09,13.93a.09.09,0,0,1-.12,0,.66.66,0,0,0-.19-.17s-.07,0,0-.15a2.29,2.29,0,0,1,.19-.48.42.42,0,0,1,.3-.16,5.59,5.59,0,0,1,1.22,0s.56.08.42.46a1.22,1.22,0,0,0-.23.47,1,1,0,0,1-.49.58s-.07.05-.07,0A.8.8,0,0,0,24,14S23.78,13.74,23.09,13.93Z"/><path class="cls-1" d="M22,18.26a.09.09,0,0,1,0-.14,3,3,0,0,1,.53-.45.74.74,0,0,0,.27-.34,6.22,6.22,0,0,1,1.32-2.26A7.23,7.23,0,0,0,25,13.86a.38.38,0,0,1,.1-.14s.35-.25.47-.24a.29.29,0,0,1,.25.29.6.6,0,0,1-.23.5l-.25.16a1.12,1.12,0,0,0-.21.21,9.28,9.28,0,0,0-1.54,2.62,1.92,1.92,0,0,1-.65,1.07A1,1,0,0,1,22,18.26Z"/><path class="cls-1" d="M24.4,17.62s-.08,0-.15.11a1.17,1.17,0,0,0,.17,1.08s.18.26.38.08a.71.71,0,0,0,.11-.12.5.5,0,0,1,.29-.19s.16,0,.16.05,0,.18,0,.33a1,1,0,0,0,.25.55,2.8,2.8,0,0,1,.45.77s0,.07-.06.12a1.39,1.39,0,0,1-.43.11s-.12,0-.12.08,0,.06.17.22a.09.09,0,0,0,.11,0,.32.32,0,0,1,.36,0,.27.27,0,0,0,.19.09l.23,0a.66.66,0,0,1,.19,0,.12.12,0,0,0,.1,0,.64.64,0,0,0,.11-.24,0,0,0,0,0,0,0,8.24,8.24,0,0,1-.45-.78,7.36,7.36,0,0,0-.69-1.39s-.24-.27-.13-.52a3,3,0,0,0,.29-.6.45.45,0,0,0-.09-.37.31.31,0,0,1-.05-.34s.22-.75.46-1.31c0,0,.06-.09-.17-.19a.32.32,0,0,0-.32.06s-.37.25-.43.4a5.89,5.89,0,0,1-.6,1.34.13.13,0,0,0,0,.11.27.27,0,0,0,.13.09s.05,0,.11-.06a1.34,1.34,0,0,0,.12-.3.11.11,0,0,1,0,0,.09.09,0,0,1,.11.07.89.89,0,0,1,0,.62,5,5,0,0,0-.18.57s0,.14-.14.16a.07.07,0,0,1-.08-.06.94.94,0,0,0-.17-.29A1.92,1.92,0,0,0,24.4,17.62Z"/><path class="cls-1" d="M25.13,19.58s-.12-.06-.18.11a2.9,2.9,0,0,1-.18.53,1.77,1.77,0,0,0-.11.49.62.62,0,0,1-.24.36.46.46,0,0,0-.24.33,1.42,1.42,0,0,1,0,.37.12.12,0,0,0,0,.06.71.71,0,0,0,.33.32l.23.11a.06.06,0,0,0,.06,0,.76.76,0,0,0,.33-.86,1.63,1.63,0,0,1,.07-.87,3.88,3.88,0,0,0,.15-.67S25.39,19.7,25.13,19.58Z"/><path class="cls-1" d="M26.76,18.46a0,0,0,0,1,0-.07.38.38,0,0,0,.06-.12.13.13,0,0,1,.08-.08L27.2,18a.12.12,0,0,1,.13,0,2.43,2.43,0,0,1,.64.33.48.48,0,0,1,.19.45.78.78,0,0,1-.32.44.44.44,0,0,1-.19.06s-.2,0-.27-.11-.18-.3-.28-.43a.53.53,0,0,0-.14-.11A.7.7,0,0,1,26.76,18.46Z"/><path class="cls-1" d="M29.83,11.08a.16.16,0,0,1,0-.14l.05-.15a.07.07,0,0,1,0,0s.28-.1.4-.16a.1.1,0,0,1,.08,0,1,1,0,0,1,.31.48.12.12,0,0,1,0,.1s-.15.4-.26.78a3,3,0,0,1-.75,1.31.26.26,0,0,1-.2.06.25.25,0,0,1-.17-.21.57.57,0,0,0,0-.19s0,0,0-.12.46-1,.54-1.2A.74.74,0,0,0,29.83,11.08Z"/><path class="cls-1" d="M30.09,13.64a.14.14,0,0,1,.12-.16s.19-.06.28,0,.44.32.59,1.61a1.43,1.43,0,0,0,.11.5,3.71,3.71,0,0,1,.34,1,7.3,7.3,0,0,0,.32,1.11s.2.43,0,.6l-.2.12s-.2.16-.34.13a.74.74,0,0,1-.3-.15,1.1,1.1,0,0,1-.27-.7.44.44,0,0,1,.09-.29.8.8,0,0,0,0-.68,3,3,0,0,1-.28-1.13,4.89,4.89,0,0,0-.09-.81S30.18,14.11,30.09,13.64Z"/><path class="cls-1" d="M32.23,9.31a.21.21,0,0,1,0-.14.71.71,0,0,0,.09-.23.11.11,0,0,1,.09-.1s.56-.13,1-.27a.27.27,0,0,1,.16,0,.75.75,0,0,1,.35.36.17.17,0,0,1,0,.14.71.71,0,0,0-.14.25.9.9,0,0,1-.72.53.11.11,0,0,1-.1,0,.09.09,0,0,0-.08,0s-.11,0-.1-.19c0,0,0-.08-.12-.07A.35.35,0,0,1,32.23,9.31Z"/><path class="cls-1" d="M31.16,12.73a.15.15,0,0,1,0-.14,3,3,0,0,1,.63-.62,1.9,1.9,0,0,0,.37-.46s.57-.89,1-1a.94.94,0,0,1,.57,0,.41.41,0,0,1,.18.23.07.07,0,0,1,0,.08l-.66.75a1.73,1.73,0,0,1-.7.48,1.08,1.08,0,0,0-.4.24,2.92,2.92,0,0,1-.62.58.22.22,0,0,1-.14,0,.34.34,0,0,1-.19-.07A.38.38,0,0,1,31.16,12.73Z"/><path class="cls-1" d="M32.31,13.12s-.05-.06,0-.1a3.54,3.54,0,0,0,1-.95.3.3,0,0,1,.1-.09l.26-.1a.05.05,0,0,1,.05,0,.68.68,0,0,1,.27.23,0,0,0,0,1,0,.06,2.43,2.43,0,0,0-.23.38,1.34,1.34,0,0,1-.53.62s-.42.23-.51.2l-.16,0S32.47,13.34,32.31,13.12Z"/><path class="cls-1" d="M32.58,14.12a.05.05,0,0,1,0,0,4.33,4.33,0,0,0,1.09-1s.13-.19.25-.11a1.68,1.68,0,0,0,.2.14.19.19,0,0,1,.06.3l-.37.54s-.37.57-.82.61C33,14.55,32.73,14.57,32.58,14.12Z"/><path class="cls-1" d="M32.51,16.62a0,0,0,0,1,0-.05,1.34,1.34,0,0,0,.16-.2.14.14,0,0,1,.09-.07s.36-.12.51.07a2.3,2.3,0,0,1,.27.58.39.39,0,0,0,0,.06,0,0,0,0,1,0,0,1,1,0,0,0-.18.12s-.18.15-.27.14a.62.62,0,0,1-.36-.21A4.09,4.09,0,0,1,32.51,16.62Z"/><path class="cls-1" d="M33,15.77s-.1-.15-.05-.2a2.6,2.6,0,0,0,.55-.62s.23-.39.36-.44a1.34,1.34,0,0,0,.48-.59s.05-.11.36-.16c0,0,.43-.06.52.14a1.89,1.89,0,0,1,.09.22s0,0,0,.06a1.66,1.66,0,0,0-.29,1s0,.06,0,.05a2.16,2.16,0,0,1,.68-.15.26.26,0,0,1,.14,0s.14.13.13.2a.32.32,0,0,0,0,.08s0,0,0,.1a3.92,3.92,0,0,1-.89.78s-.54.32-.73,0c0,0-.2-.37-.17-.51a.77.77,0,0,0,0-.36s0-.11-.12,0a1.12,1.12,0,0,1-.46.38,2,2,0,0,1-.42.14A.66.66,0,0,1,33,15.77Z"/><path class="cls-1" d="M48.66,9.75s-.07-.14.13-.14a2.3,2.3,0,0,1,.49,0,2.91,2.91,0,0,0,1.45-.26A.74.74,0,0,0,51,9.15a.14.14,0,0,1,.1-.06l.6,0s.07,0,.1,0a.77.77,0,0,0,.16.15.39.39,0,0,1,.18.32.17.17,0,0,1,0,.13,1.73,1.73,0,0,0-.42.61.82.82,0,0,1-.33.34,8.18,8.18,0,0,0-1,.87s-.5.52-.89,1c0,0,0,0,0,.07a.67.67,0,0,1,.06.15s0,.1.2,0a1.6,1.6,0,0,0,.66-.39.87.87,0,0,1,.42-.23,1.89,1.89,0,0,1,1.09.06.4.4,0,0,1,.23.38,1.5,1.5,0,0,1-.25.5.65.65,0,0,1-.58.22,1.74,1.74,0,0,0-.84.05,4.77,4.77,0,0,0-1.74.89.54.54,0,0,1-.35.17s-1.49.07-2-.55a.16.16,0,0,1,0-.23,1.55,1.55,0,0,1,.79-.12,2.88,2.88,0,0,0,1.59-.53s.5-.47.49-.6a.47.47,0,0,1,0-.24.26.26,0,0,1,.08-.08s.2-.11.56-.87a5.33,5.33,0,0,1,.42-.81s.12-.12.06-.2,0,0-.08,0S49,10.55,48.66,9.75Z"/><path class="cls-1" d="M59.17,9.38a.07.07,0,0,1,.1,0l.18.1a.12.12,0,0,1,.06.1,2.06,2.06,0,0,1,0,.71s0,.08-.07.1a1.72,1.72,0,0,0-.37.19.12.12,0,0,1-.12,0l-.1,0a.24.24,0,0,0-.17,0,6.82,6.82,0,0,1-1.76.56s-.62.11-.79.37a.11.11,0,0,0,0,.14s.16.17.26.14l.27-.07a.64.64,0,0,0,.41-.24,1,1,0,0,1,.69-.3.44.44,0,0,1,.24.11l0,0a.12.12,0,0,1,0,.08.89.89,0,0,0,.05.33.11.11,0,0,1,0,.12,1.68,1.68,0,0,1-1,.58s-.33.09-.41.29l-.12.36a.26.26,0,0,1-.09.14.44.44,0,0,0-.09.4.22.22,0,0,0,.14.17.1.1,0,0,0,.09,0,1.54,1.54,0,0,1,.55-.23,1.16,1.16,0,0,0,.53-.31s.25-.42.56-.4c0,0,.26,0,.25.12a.45.45,0,0,0,0,.29.21.21,0,0,0,.23.09,2.89,2.89,0,0,1,1.66-.13s.13,0,.12.09a.62.62,0,0,0,0,.24.7.7,0,0,1,0,.52s0,.05,0,.05a.49.49,0,0,0-.34.26s-.06.12,0,.16a.74.74,0,0,1,.11.65.16.16,0,0,1-.06.08,4.72,4.72,0,0,0-.67.42,6.12,6.12,0,0,1-.81.45.06.06,0,0,0,0,.06s0,.15.22.22a4.42,4.42,0,0,0,.81.1,1.38,1.38,0,0,1,.48.11l.26.13s0,0,0,.05a1.19,1.19,0,0,1,0,.25,0,0,0,0,1,0,0,.11.11,0,0,0-.1.09s0,0,0,0h-.14a6.41,6.41,0,0,1-2-.37,1.21,1.21,0,0,1-.34-.32.37.37,0,0,1-.06-.32,1.23,1.23,0,0,0,0-.16s0,0,.06-.07a2.85,2.85,0,0,0,.5-.28.81.81,0,0,0,.18-.32s0-.08.16-.14a1.06,1.06,0,0,0,.29-.14s0,0,0-.1-.18-.14,0-.42a.06.06,0,0,1,.06,0s.43,0,.72-.63a.18.18,0,0,0,0-.17.06.06,0,0,0-.06,0,3.18,3.18,0,0,0-.55.17.82.82,0,0,1-.6,0,.53.53,0,0,1-.18-.19.17.17,0,0,0-.16-.1,1.52,1.52,0,0,1-.27-.06s-.05,0-.08,0a5.75,5.75,0,0,1-1.78,1,.07.07,0,0,0-.05.06s-.14.43-.22.63a.1.1,0,0,1-.07.06.71.71,0,0,0-.19.14.39.39,0,0,1-.42.09.07.07,0,0,1,0-.07s0-.15-.22-.22a.78.78,0,0,0-.75.16,1.49,1.49,0,0,1-.43.27.34.34,0,0,1-.28-.1,1,1,0,0,1-.2-.42s0-.08.07-.26c0,0,.26-.53,1.36-.73a6,6,0,0,0,.89-.25.3.3,0,0,0,.1-.07s.34-.85.48-1.08c0,0,0,0,0-.08L56,12.53a0,0,0,0,0-.06,0,2.11,2.11,0,0,1-.81,0,1.86,1.86,0,0,1-.37-.11s-.09,0-.08-.08a.25.25,0,0,0-.05-.16.27.27,0,0,1,0-.29s0-.05.09-.07a4.52,4.52,0,0,0,1-.63,3.18,3.18,0,0,1,1.35-.72A4.27,4.27,0,0,0,59.17,9.38Z"/><path class="cls-1" d="M59.94,11.25a.32.32,0,0,1,.24-.1s.23,0,.23,0a.3.3,0,0,0,.08.24,1,1,0,0,0,.34.15s.27.09,1.16-.46c0,0,0,0,0-.09a.32.32,0,0,1,0-.31.05.05,0,0,1,0,0s.42,0,.74-.07a.12.12,0,0,1,.06,0l.14.1a.36.36,0,0,1,.14.45.07.07,0,0,1,0,0,3,3,0,0,0-1.57.52s-.18.13-.07.25a.23.23,0,0,1,.07.24,1.19,1.19,0,0,1,0,.14.1.1,0,0,1-.07.07,2,2,0,0,0-.29.06,1.46,1.46,0,0,1-1-.16s0,0,0,0a.7.7,0,0,0-.25-.33.22.22,0,0,1-.06-.14A1,1,0,0,1,59.94,11.25Z"/><path class="cls-1" d="M69.23,15.32a.16.16,0,0,1,.23-.11s.37.25.37.41a5.77,5.77,0,0,0,.07.93.68.68,0,0,1-.22.67,2,2,0,0,1-.43.27,5.18,5.18,0,0,0-.49.28,1.49,1.49,0,0,1-.42.17s-.42.1-.44.28a.32.32,0,0,0,.09.25s.18.2.48-.07a.24.24,0,0,1,.36,0,.49.49,0,0,1,0,.56s-.08.13-.17.13a.58.58,0,0,0-.33.1.37.37,0,0,1-.44-.08s-.32-.32-1.27-.19a1.88,1.88,0,0,0-.57.17,3.81,3.81,0,0,1-1.28.17,6.26,6.26,0,0,0-.8.12,2.23,2.23,0,0,1-1.51-.19,1.83,1.83,0,0,1-.45-.34.1.1,0,0,1,0-.06.64.64,0,0,1,0-.32.05.05,0,0,1,.08,0,2.71,2.71,0,0,1,.27.18s.33.28,1.57.05c0,0,.61-.12.91-.21a6.43,6.43,0,0,1,.64-.15s.06,0,.06-.06,0-.19-.16-.22a2.16,2.16,0,0,1-.85-.42,5.94,5.94,0,0,1-.62-.58,0,0,0,0,1,0,0,1,1,0,0,1,.09-.15,0,0,0,0,1,0,0,.76.76,0,0,1,.44.18,2,2,0,0,0,.62.45s1,.54,1.41.4a3,3,0,0,0,.81-.42,1.48,1.48,0,0,1,.41-.16,3.09,3.09,0,0,0,1.18-.63.32.32,0,0,0,.09-.19s0-.29,0-.45a.22.22,0,0,1,.09-.18.24.24,0,0,0,.1-.2A1.25,1.25,0,0,1,69.23,15.32Z"/><path class="cls-1" d="M66.43,20.09a.15.15,0,0,1,0-.18s.1-.1.18-.06a1.46,1.46,0,0,1,.51.65.64.64,0,0,1-.09.49s-.19.32-.38.36a.51.51,0,0,1-.39-.12,1.89,1.89,0,0,1-.36-.38.11.11,0,0,1,0-.09l.11-.17a0,0,0,0,1,0,0,.33.33,0,0,0,.33-.05S66.56,20.4,66.43,20.09Z"/><path class="cls-1" d="M73.53,21.21a.14.14,0,0,1,.13-.09.28.28,0,0,1,.26.19.1.1,0,0,1,0,.08.88.88,0,0,0-.09.16.36.36,0,0,0,0,.29,1.37,1.37,0,0,0,.18.26.27.27,0,0,0,.12,0s0,0,0,0a.17.17,0,0,1,.09-.15.8.8,0,0,1,.21-.07.24.24,0,0,0,.17-.16s.13-.4.29-.4c0,0,.11,0,.14.33a1.39,1.39,0,0,1-.09.55.71.71,0,0,0,0,.49.3.3,0,0,0,.12.12s.17.09.27.16a.39.39,0,0,0,.35,0,.08.08,0,0,0,0,0v-.1a0,0,0,0,0,0,0,1.64,1.64,0,0,1-.42-.23s-.09-.07-.06-.13a.37.37,0,0,1,.21-.17s.06,0,0-.06-.08-.18,0-.26.12-.08.17,0,.26.46.46.53a.63.63,0,0,1,.24.13.32.32,0,0,0,.17.13,2.33,2.33,0,0,0,.76,0s.86-.06,1,.29a.33.33,0,0,1-.37.39,4.66,4.66,0,0,1-.75-.12s-.32-.09-.38,0a.32.32,0,0,0,0,.29s.11.25.65.52a.22.22,0,0,0,.09,0,.23.23,0,0,1,.19.12s.18.28.3.5c0,0,0,.08,0,.13a.83.83,0,0,1-.24.26.09.09,0,0,1-.11,0,1.46,1.46,0,0,0-.66-.12h-.72a1.33,1.33,0,0,1-1.17-.78s0-.05,0-.07a.14.14,0,0,1,.15,0,1.07,1.07,0,0,0,.68.13s.32-.1.46.1a.24.24,0,0,0,.16.13,2.19,2.19,0,0,0,.75.07,0,0,0,0,0,0,0,.66.66,0,0,0,0-.16s-.19-.39-1.27-.81c0,0-.84-.29-.88,0a.68.68,0,0,1-.12.44s-.07.08-.12.06a.72.72,0,0,1-.21-.16.19.19,0,0,1,0-.1.58.58,0,0,0-.13-.47.15.15,0,0,0-.13-.07.84.84,0,0,1-.66-.26,0,0,0,0,1,0-.06l.11-.1a.05.05,0,0,1,0,0,.17.17,0,0,0,.15,0s.26-.12.15-.26-.08-.09-.62-.19a1.14,1.14,0,0,1-.76-.51.08.08,0,0,1,0-.06,1,1,0,0,0,.08-.21s0,0,0,0a2.24,2.24,0,0,0,.29-.12S73.46,21.43,73.53,21.21Z"/><path class="cls-1" d="M69.89,21.06s.23-.41.63.15a4.07,4.07,0,0,0,1.77,1.5,27.36,27.36,0,0,1,2.87,1.93,1.27,1.27,0,0,1,.29.44.41.41,0,0,1-.14.39s0,0-.06,0a2.86,2.86,0,0,0-.54-.16,2,2,0,0,1-1.15-.69s0,0,0-.06.12-.23.26-.15a.87.87,0,0,0,.58.21s0,0,0,0a.23.23,0,0,0,0-.09l0,0a10.71,10.71,0,0,0-1.87-1.06,12.17,12.17,0,0,1-1.65-.79,1.5,1.5,0,0,0-.37-.15.17.17,0,0,1-.12-.09s-.15-.25-.3-.46C70.05,21.91,69.69,21.44,69.89,21.06Z"/><path class="cls-1" d="M71.44,23.62a.12.12,0,0,1,.19,0,2.09,2.09,0,0,0,.69.54,10,10,0,0,1,1.37,1,4.53,4.53,0,0,0,1,.75.35.35,0,0,1,.13.09,1.52,1.52,0,0,1,.27.52s0,.29-.28.31a.3.3,0,0,0-.13,0s-.06,0-.15-.05a7.25,7.25,0,0,0-1.31-.79,2,2,0,0,1-.65-.57.17.17,0,0,0-.1-.07s-.21,0-.29.08a1.42,1.42,0,0,1-.31.25l-.27.21a4.56,4.56,0,0,1-.62.42.76.76,0,0,0-.22.19s-.13.23-.3.19a.83.83,0,0,1-.42-.36,1.61,1.61,0,0,1-.12-.82,1.66,1.66,0,0,0-.18-.85s-.27-.51-.12-.8c0,0,.11-.19.2-.07a.7.7,0,0,1,.13.32.81.81,0,0,0,.18.37,1.16,1.16,0,0,1,.23.46s.24.77.62.62a5.19,5.19,0,0,1,.65-.24A.54.54,0,0,0,72,25a.11.11,0,0,0,0-.1,3.45,3.45,0,0,1-.5-.55S71.17,23.9,71.44,23.62Z"/><path class="cls-1" d="M40.14,6.27A.25.25,0,0,1,40.33,6s.12,0,.16,0a.5.5,0,0,0,.14.16.25.25,0,0,1,.11.18s.11.65,0,.73a3.67,3.67,0,0,0-.69.65A3,3,0,0,1,39,8.55s-.06,0-.06,0a1,1,0,0,0-.05-.22s0,0,0-.05a3.56,3.56,0,0,0,.58-.79A5.81,5.81,0,0,1,40,6.64.7.7,0,0,0,40.14,6.27Z"/><path class="cls-1" d="M38.58,10.6a.14.14,0,0,1,.1-.12s.12,0,.18.13l.1.33a.81.81,0,0,1,.11.37s.08.65.15,1a.65.65,0,0,1-.51.8s-.1,0-.14,0a.73.73,0,0,1-.17-.65,1.87,1.87,0,0,0,.07-.48A9.32,9.32,0,0,1,38.58,10.6Z"/><path class="cls-1" d="M39.66,12.8s.12-.2.23-.15A.48.48,0,0,1,40,13a.25.25,0,0,1,0,.13,4.39,4.39,0,0,0-.21.73,3.18,3.18,0,0,1-.12.53.06.06,0,0,0,0,.06h.1l.24,0a2.21,2.21,0,0,1,.45,0,3.56,3.56,0,0,0,1.06-.22,7.34,7.34,0,0,0,.91-.37,0,0,0,0,0,0,0s-.1-.31,0-.37.29-.11.36-.08l.14.06.35.08a.46.46,0,0,1,.31.21.7.7,0,0,1,.05.19.05.05,0,0,1,0,0,1.27,1.27,0,0,0-.18.24s-.11.25-.82.49a6.88,6.88,0,0,1-2.4.28,2.32,2.32,0,0,0-.65-.17.07.07,0,0,0-.07,0,2.08,2.08,0,0,1-.61,1,.39.39,0,0,1-.25.08.2.2,0,0,1-.13,0,.31.31,0,0,1-.07-.12s-.08-.32,0-.38a3.68,3.68,0,0,0,.2-.37A14.91,14.91,0,0,1,39.66,12.8Z"/><path class="cls-1" d="M44.49,12a1.87,1.87,0,0,0-.46-.36,1,1,0,0,0-.76,0,4.21,4.21,0,0,0-1.08,1,.84.84,0,0,1-.32.24l-.35.21c-.16.09-.2,0-.2,0s.06-.11.06-.11c.41-.57.26-.83.26-.83a3.27,3.27,0,0,1,0-1.54A11.56,11.56,0,0,0,42,8.19c0-.23,0-.29,0-.29S42,7.52,42,7.52a.08.08,0,0,0-.07,0,6,6,0,0,0-.64,0,.86.86,0,0,0-.4.16L40,8.42a4.05,4.05,0,0,1-.44.28c-.55.35-.47.48-.47.48a3.2,3.2,0,0,0,.23.61,1.49,1.49,0,0,1,.16.65.66.66,0,0,1-.18.43.08.08,0,0,0,0,.07c0,.17.13.66.13.66a.28.28,0,0,0,.27.2.7.7,0,0,1,.59.36c.06.18.59,0,.59,0s0,.08,0,.08a.38.38,0,0,1-.16.3c-.17.15-.13.24-.13.24a3.27,3.27,0,0,1,.09.57c0,.06.06.11.06.11.24.18.45.36.45.36a.37.37,0,0,0,.17.06.87.87,0,0,0,.68-.22,8.3,8.3,0,0,0,1.17-1.57.08.08,0,0,1,.07-.06c.26,0,.3,0,.3,0a1.17,1.17,0,0,1,.07.32c0,.08,0,.07,0,.07a.36.36,0,0,1,.31.13.05.05,0,0,0,.06,0,1.07,1.07,0,0,0,.58-.34C44.69,12.2,44.49,12,44.49,12Zm-3.64-.39a1.22,1.22,0,0,0-.52-.27,1.18,1.18,0,0,1-.5-.31,0,0,0,0,1,0-.06A1.09,1.09,0,0,0,40,10s-.17-.66-.58-.81c0,0,0,0,0,0a1,1,0,0,1,.48-.12.71.71,0,0,0,.46-.22s.63-.49.89-.75a.14.14,0,0,1,.08,0s.08,0,.07.06A8,8,0,0,0,41.07,10,7.52,7.52,0,0,0,41,11.12a1.5,1.5,0,0,1-.08.47A0,0,0,0,1,40.85,11.61Z"/><path class="cls-1" d="M117.8,42.6s-.66-1.82,1.54-2.25a1.79,1.79,0,0,0,.45-.13,7,7,0,0,1,2.94-.23,7.89,7.89,0,0,0,4.74-1.39A54.33,54.33,0,0,0,132,35a10,10,0,0,0,2-5.26s.13-1.17.44-2.76a12.75,12.75,0,0,0,.12-2.78,5.07,5.07,0,0,1,.38-2.88s.7-1.43,3.18-1.22c0,0,2.57.23,5,5.7a4.65,4.65,0,0,1,.23,2.55s-.29,1.37.71,1.77c0,0,1.53.37,1.55,1.21a1.08,1.08,0,0,1-.44.82,6.63,6.63,0,0,0-1.37,2s-.37.87-2.81,1c0,0-1.12-.1-2.81,2.35a12.43,12.43,0,0,1-2,2.38,21.82,21.82,0,0,0-3,3.35s-.29.37.09.44a1,1,0,0,0,.7-.32,9.54,9.54,0,0,1,3.2-2.17A81.91,81.91,0,0,0,145.33,37a5.34,5.34,0,0,1,1.71-.75,4.09,4.09,0,0,0,1.39-.53,1.73,1.73,0,0,1,1-.23s2.09-.08,2.53.33c0,0,2.26,2.21,1.74,3.7a2.38,2.38,0,0,1-.48.72s-.51.43-.57,2.07a69.9,69.9,0,0,1-2,11.15,26.38,26.38,0,0,0-.88,5.33,14.48,14.48,0,0,1-1.21,4.92,11.85,11.85,0,0,0-.59,3.78s0,4.71-3.81,5.07a3,3,0,0,1-2.29-1.11,12,12,0,0,0-5-3.37A8.26,8.26,0,0,1,133,64.93s-.58-1-.24-1.53c0,0,.32-.49,1.1-.07a30.6,30.6,0,0,1,4.19,2.6,9.08,9.08,0,0,0,3.1,1.37s2.08.35,2-1.06c0,0-.42-11.41,1.64-16.07,0,0,1.57-4.3,2.22-6.33a36,36,0,0,0,1.51-5.06s0-1.11-.65-.9c0,0-1.91.58-6.49,3.95A40.67,40.67,0,0,1,136,45.22s-.74.41-.89.91c0,0-.17.38.28.38,0,0,2.46.28,2.47,2.52,0,0,.21.79-2.26,2a11.72,11.72,0,0,0-4,3.5s-.2.26,0,.33a2.63,2.63,0,0,1,1.11.93s.59.82.13,1.31a2.7,2.7,0,0,0-.53,1s0,.74-2.1,1.15a1.27,1.27,0,0,0-.9,1.36s0,.36.22.37c0,0,.11,0,.32-.23,0,0,1-1.11,1.24-1.35a1.2,1.2,0,0,1,.87-.34l.93.08a.5.5,0,0,1,.41.25,3.29,3.29,0,0,1,.4,1.22,4.94,4.94,0,0,1-.2,1.09,1,1,0,0,1-.42.53A6.07,6.07,0,0,0,130.83,64a.82.82,0,0,0,0,.94s.32.54.72,1.12a2.22,2.22,0,0,1,.12,2.29,5.76,5.76,0,0,0-.43.85s-.09,1-2.78,1.16c0,0-1.15.1-1.46-.46,0,0-1.31-1.64-1.44-6.46,0,0,0-.17.26-.29,0,0,1.32-.44,1.2-1.31A2.21,2.21,0,0,0,126,60.59s-1.21-.64-.74-1.54a2,2,0,0,1,.7-.82s1.61-1.1,3-1.87c0,0,.32-.11,0-.47a1.06,1.06,0,0,1-.2-1.06.33.33,0,0,1,.18-.19,14.61,14.61,0,0,0,4-5.54s.2-.48-.16-.51c0,0-.27,0-.56.38,0,0-.78,1.14-1.3,1.23,0,0-.87.1-1.11.51a29.56,29.56,0,0,0-1.21,2.71s-.5,1.61-1.86,1.88c0,0-.44.1-.57,0s-.52-.4-1-.72a.8.8,0,0,1-.36-.58,2.42,2.42,0,0,0-.55-1.37.61.61,0,0,0-.9.07s-.51.8-2.32.69a1.24,1.24,0,0,1-.41-.1s-.45-.29-.5-1.68c0,0,0-.16.24-.28a8.94,8.94,0,0,0,2.75-1.51,10,10,0,0,1,2.82-1.47s1.31-.37,1.54-1.23a4.83,4.83,0,0,1,1-2.11s.56-.73.07-.91c0,0-.88-.46-2.67.85a2.48,2.48,0,0,1-1.68,1s-.83,0-1.45.1a5.36,5.36,0,0,1-3.17-.73A7.87,7.87,0,0,1,117.8,42.6Z"/><path class="cls-1" d="M116.29,56.12s.38-1,1.1-.76a1.5,1.5,0,0,1,.66,1.26,4.85,4.85,0,0,0,.85,2.64s2.06,2.24,2.23,4.32c0,0,.41,4-3.18,4.63a1.24,1.24,0,0,1-1.15-.34,4.15,4.15,0,0,1-1.44-2.45,11.94,11.94,0,0,1,0-2.53A33.73,33.73,0,0,1,116.29,56.12Z"/><path class="cls-1" d="M184.41,27a.49.49,0,0,1-.47-.51,4.26,4.26,0,0,0-.34-1.32s-.25-.35.26-.82a10.89,10.89,0,0,1,2.29-1.58,2.23,2.23,0,0,1,1.85.17,28.21,28.21,0,0,1,5.59,3.58s2.35,2.05.52,3.37a6.57,6.57,0,0,0-2.42,1.44s-1.13,1.22-4,1.16c0,0-.47,0-.25-.34a4.13,4.13,0,0,0,.69-2S188.1,28.17,184.41,27Z"/><path class="cls-1" d="M166.34,43.34a.48.48,0,0,1,.34-.71,17.33,17.33,0,0,1,3.77-.44,3.79,3.79,0,0,0,2.21-.75s4.42-3.95,12.8-6.29c0,0,5.18-1.35,7.67-2.87A1.8,1.8,0,0,1,194,32s2.37-.11,2.85.31a1.53,1.53,0,0,1,.28,2.06A3.29,3.29,0,0,1,194.6,36s-1,0-1.64,0a5,5,0,0,0-1.56.33s-11,3.42-14.91,7.22c0,0-3.12,3-6.21,2.91A5.18,5.18,0,0,1,166.34,43.34Z"/><path class="cls-1" d="M179.22,47.7s-.22-.45-1,0a6.4,6.4,0,0,0-2.48,5.43s0,1.73,1.47,1.53a4.57,4.57,0,0,0,.87-.24,2.66,2.66,0,0,1,1.87,0s.78.41.58.68c0,0-.44.88-.86,1.58A5.12,5.12,0,0,0,179.1,60a15.47,15.47,0,0,1-.27,4.88.53.53,0,0,1-.62.37,8.5,8.5,0,0,1-2.31-.79s-.56-.36-.78,0c0,0-.18.24.12,1.53a.43.43,0,0,0,.44.36,1.77,1.77,0,0,1,1.55,1.26s.11.74.55,1c0,0,.5.27,1.16.54a4.2,4.2,0,0,1,.94.49.57.57,0,0,0,.56.12,3.53,3.53,0,0,0,1.22-.73.34.34,0,0,0,.1-.22,38.73,38.73,0,0,1,.32-4.92s1.46-7.06,1-8.4c0,0-.26-2,1-2.77a16.49,16.49,0,0,0,3.13-1.82,2.43,2.43,0,0,0,.7-2,1.71,1.71,0,0,1,.8-1.68s3.26-2.77,6-4.6c0,0,.54-.21-.18-1.39a1.88,1.88,0,0,0-1.65-.68s-2.43,0-3.13.53a33.86,33.86,0,0,1-6.79,4.3.62.62,0,0,0-.34.48,1.82,1.82,0,0,0,.32.8s.13.32.69.06a9,9,0,0,0,1.47-1,.41.41,0,0,1,.36-.08.52.52,0,0,1,.3.66A4.76,4.76,0,0,1,183.72,49,29.57,29.57,0,0,0,181.18,51a1,1,0,0,1-1.11.32.45.45,0,0,1-.19-.56A5.17,5.17,0,0,0,180,49,9.42,9.42,0,0,0,179.22,47.7Z"/><path class="cls-1" d="M176.62,58.79s-.39-.65-1.16-.06a14.86,14.86,0,0,1-2.41,1.9,9,9,0,0,0-2,1.89,3.22,3.22,0,0,1-2.18.87,2.46,2.46,0,0,0-2.07.8,10.68,10.68,0,0,1-1.1,1.69.68.68,0,0,0-.12.3,4.17,4.17,0,0,0,.52,2.49,13.31,13.31,0,0,1,.73,1.16.27.27,0,0,0,.27.17s2.64.39,4.09-2.87a9.56,9.56,0,0,1,2.93-3.77,21.52,21.52,0,0,0,2.71-2.6S177.42,60.1,176.62,58.79Z"/><path class="cls-1" d="M187.38,58.62a.29.29,0,0,1,.18-.35,1.82,1.82,0,0,0,.64-.39.71.71,0,0,1,.61-.1,18.34,18.34,0,0,0,1.94.14.73.73,0,0,1,.63.34,14.45,14.45,0,0,1,1.94,3.4,2.72,2.72,0,0,1-.49,2.61,4.42,4.42,0,0,1-2.8,1A2.7,2.7,0,0,1,189,65s-.94-.55-.93-1.33a24.16,24.16,0,0,0,0-2.8,2.36,2.36,0,0,0-.32-.92A5.2,5.2,0,0,1,187.38,58.62Z"/><path class="cls-1" d="M218.2,29.23a.83.83,0,0,1,.19-.74,7.07,7.07,0,0,0,.53-.59.34.34,0,0,1,.28-.15s1.57,0,2.26,0a.51.51,0,0,1,.4.17,5.05,5.05,0,0,1,.57,2.91.58.58,0,0,1-.23.5s-1.53,1.68-2.79,3.34c0,0-2.74,3.68-6.22,5a1.41,1.41,0,0,1-1.11-.13,1.21,1.21,0,0,1-.43-1.32,3.1,3.1,0,0,0,.19-1s-.09-.21.35-.58c0,0,4.14-3.75,5-4.83A3.87,3.87,0,0,0,218.2,29.23Z"/><path class="cls-1" d="M214.51,42.32a.77.77,0,0,1,.88-.58s1.05.1,1.31.74c0,0,1.52,2.45-.26,9.06a7.94,7.94,0,0,0-.42,2.68,19.45,19.45,0,0,1-.37,5.78,38.84,38.84,0,0,0-.56,6.07s.16,2.49-1.22,2.94a11.86,11.86,0,0,0-1.25.2,3.13,3.13,0,0,1-1.9,0,3.64,3.64,0,0,1-1.15-1.34s-.73-1.27,0-3.92a2.21,2.21,0,0,1,1-1.31,4.34,4.34,0,0,0,1.17-3.41,14.79,14.79,0,0,1,.81-6.07A24.55,24.55,0,0,0,213.68,49S214,44.79,214.51,42.32Z"/><path class="cls-1" d="M233.45,25.22a1.07,1.07,0,0,1,.25-.71,3.28,3.28,0,0,0,.9-1,.53.53,0,0,1,.63-.28s3,.45,5.24.55a1.43,1.43,0,0,1,.81.3,3.89,3.89,0,0,1,1,2.45.78.78,0,0,1-.32.65,3.71,3.71,0,0,0-1.14,1s-1.33,1.7-4.6,1.17a.54.54,0,0,1-.42-.38s0-.17-.3-.28c0,0-.6-.17-.14-1.13,0,0,.23-.37-.44-.62A1.79,1.79,0,0,1,233.45,25.22Z"/><path class="cls-1" d="M221.52,39.94a.78.78,0,0,1,.39-.63,15.07,15.07,0,0,1,4.28-1.86,10,10,0,0,0,2.72-1.51s4.54-3.27,7.07-2.9a5.08,5.08,0,0,1,2.74,1.25,2.15,2.15,0,0,1,.41,1.51s0,.21-.25.33c0,0-1.72.84-4.7,2.41a9.28,9.28,0,0,1-4.37,1,5.69,5.69,0,0,0-2.43.43,16.25,16.25,0,0,1-4.18,1.62,1.16,1.16,0,0,1-.75-.07,1.71,1.71,0,0,1-.78-.73A2.1,2.1,0,0,1,221.52,39.94Z"/><path class="cls-1" d="M226.44,44.08s-.14-.37.39-.41c0,0,2.12-.14,6.8-2.68a1.39,1.39,0,0,1,.66-.24h1.44a.38.38,0,0,1,.27.13,3.43,3.43,0,0,1,.84,1.64.26.26,0,0,1-.17.31,11.75,11.75,0,0,0-1.84,1.4,6.87,6.87,0,0,1-3.82,2s-2.52.34-2.9,0a4,4,0,0,0-.71-.52S226.79,45.46,226.44,44.08Z"/><path class="cls-1" d="M225.77,49.53a.25.25,0,0,1,.19-.23,22.79,22.79,0,0,0,7.26-2.8s1-.67,1.46-.06a6.55,6.55,0,0,0,.73,1.09,1,1,0,0,1-.32,1.6s-1.87,1.24-2.86,1.93c0,0-2.91,2.07-5.2,1.4C227,52.46,225.65,52,225.77,49.53Z"/><path class="cls-1" d="M220.56,61.66a.24.24,0,0,1,.11-.23,6,6,0,0,0,1.19-.71.79.79,0,0,1,.59-.14s2,.12,2.34,1.3a12.44,12.44,0,0,1,.2,3.43s0,.19,0,.32a.2.2,0,0,1-.17.21,4.69,4.69,0,0,0-1.11.26s-1.17.39-1.56.14a3.22,3.22,0,0,1-1.37-1.73A16.51,16.51,0,0,1,220.56,61.66Z"/><path class="cls-1" d="M224.61,58.44s-.21-.94.14-1.11a12.93,12.93,0,0,0,3.87-2,9.23,9.23,0,0,1,2.63-1.47A7.12,7.12,0,0,0,234.79,52s.47-.45,2.06-.08c0,0,2.2.55,2.29,1.67,0,0,0,.63,0,1.29a.27.27,0,0,1-.14.27,8.93,8.93,0,0,0-3.42,4.39s-.16.29.08.3a11.28,11.28,0,0,1,3.62.61,1.16,1.16,0,0,1,.61.45s.43.9.25,1.26a1,1,0,0,0-.12.38s.11.21-.25.47a21.66,21.66,0,0,1-5.87,2.11s-3.29.53-3.63-1.38c0,0-.23-2.19.17-2.84a3.85,3.85,0,0,0,.72-1.73s0-.62-.62-.25a5.82,5.82,0,0,1-3,.93,8.61,8.61,0,0,1-2.3-.12A3.64,3.64,0,0,1,224.61,58.44Z"/><path class="cls-1" d="M315.73,35s-.31-.8.76-.77a13,13,0,0,1,2.71.32,16.06,16.06,0,0,0,8.07-.82,3.88,3.88,0,0,0,1.52-1.07.74.74,0,0,1,.56-.3s2.8,0,3.32,0a.73.73,0,0,1,.55.25,3.8,3.8,0,0,0,.85.85,2.22,2.22,0,0,1,.84,1.87.89.89,0,0,1-.3.67A9.94,9.94,0,0,0,332,39.22a4.39,4.39,0,0,1-2,1.72,45.33,45.33,0,0,0-5.74,4.36s-3,2.66-5.28,5c0,0-.23.2-.15.38a3.15,3.15,0,0,1,.28.81s0,.57,1.06.32a9,9,0,0,0,3.84-1.9,4.77,4.77,0,0,1,2.37-1.07s3.76-.58,6,.77a2.24,2.24,0,0,1,1.12,2.19A7.78,7.78,0,0,1,332,54.4a3.6,3.6,0,0,1-3.25,1,9.41,9.41,0,0,0-4.66-.09s-7.81,1.74-9.93,4.2a2.87,2.87,0,0,1-2,.78s-8.2-.2-10.89-3.88a.81.81,0,0,1,.36-1.2s1.12-.67,4.36-.35a16,16,0,0,0,9-2.27s2.94-2.37,3-3.1a2.38,2.38,0,0,1,.24-1.28,2.47,2.47,0,0,1,.48-.44s1.16-.49,3.43-4.56a26.05,26.05,0,0,1,2.66-4.25s.69-.64.38-1.07c0,0-.11-.12-.4,0C324.67,37.86,317.43,39.55,315.73,35Z"/><path class="cls-1" d="M366.3,26.15a.42.42,0,0,1,.5-.25s.59.13,1,.19a.65.65,0,0,1,.48.39A11,11,0,0,1,369.43,30a.68.68,0,0,1-.18.63,8.08,8.08,0,0,0-1.48,1.54.7.7,0,0,1-.61.27h-.55a1.2,1.2,0,0,0-.79.32,37.1,37.1,0,0,1-7.69,5.78s-2.86,1.63-3.25,3.2a.56.56,0,0,0,.33.65s1.07.52,1.5.21a10.34,10.34,0,0,1,1.23-.8A3.43,3.43,0,0,0,359.52,40s1.12-2.28,2.9-2.68a2.36,2.36,0,0,1,1.35.1s.19.11.31.16a.39.39,0,0,1,.28.32,4.66,4.66,0,0,0,.84,1.52.59.59,0,0,1,.09.62s-.42,2.15-4.05,4.66c0,0-1.49,1-1.53,2.14,0,0,0,1.27,0,2a1.28,1.28,0,0,1-.21.83,2.26,2.26,0,0,0,.25,2.09,1.23,1.23,0,0,0,1,.61.53.53,0,0,0,.42-.2A8,8,0,0,1,363.48,50a5.91,5.91,0,0,0,2.11-2.45s.5-2.48,2-2.93c0,0,1.28-.37,1.45.21a2.48,2.48,0,0,0,.63,1.38,1.17,1.17,0,0,0,1.3,0,15.15,15.15,0,0,1,8-3.49s.65-.08.71.24a2.89,2.89,0,0,0,.64,1.1,3.62,3.62,0,0,1,.86,2.59A.31.31,0,0,1,381,47a2.46,2.46,0,0,0-1.18,1.85s-.13.68.13.81a3.74,3.74,0,0,1,1.65,3,.68.68,0,0,1-.14.51,23.34,23.34,0,0,0-2.57,3.23,36,36,0,0,1-3.2,3.57.32.32,0,0,0-.08.36,1.38,1.38,0,0,0,1.42.73,22.39,22.39,0,0,0,4.2-.92,7.44,7.44,0,0,1,2.54-.27s1.15.14,1.47.21c0,0,.24,0,.28.19a5.33,5.33,0,0,1,.37,1.27.18.18,0,0,1-.11.22.62.62,0,0,0-.29.63s.05.14-.21.17a4,4,0,0,0-.7.18s-6.18,2-10.44,1.62a6.11,6.11,0,0,1-2.26-1,2,2,0,0,1-.84-1.48A7.32,7.32,0,0,0,371,61s-.07-.18.2-.44a15,15,0,0,0,2-2.24,4,4,0,0,0,.32-1.85s-.07-.44.55-1a5.35,5.35,0,0,0,1.16-1.19s.19-.22-.19-.46c0,0-1.11-.42-.8-2.06a.36.36,0,0,1,.26-.28s2.15-.67,2.46-4.38a1,1,0,0,0-.4-.79.26.26,0,0,0-.32,0,16.12,16.12,0,0,0-2.41,1.79,4.19,4.19,0,0,1-2.91,1.19,2.63,2.63,0,0,1-1.22-.65.93.93,0,0,0-1-.21,6.61,6.61,0,0,1-1.44.17.35.35,0,0,0-.35.21s-1.35,2.94-7,8.07a.43.43,0,0,0-.18.39s.09,2.34,0,3.47a.66.66,0,0,1-.23.43,2.75,2.75,0,0,0-.71,1,1.92,1.92,0,0,1-1.88,1.17.42.42,0,0,1-.41-.23s-.17-.76-1.44-.73a4,4,0,0,0-3.39,2.08,7.44,7.44,0,0,1-1.7,2,1.56,1.56,0,0,1-1.52,0,5,5,0,0,1-1.73-1.71s-.28-.35-.08-1.38c0,0,.35-3.09,5.4-6a33.47,33.47,0,0,0,4-2.72,1.28,1.28,0,0,0,.38-.53s.25-4.79.51-6.13c0,0,.07-.32-.06-.43s-.43-.42-.61-.63a.26.26,0,0,0-.36,0,10.76,10.76,0,0,1-3.9,1.57,11,11,0,0,1-2,.12s-.48,0-.53-.27a1.6,1.6,0,0,0-.57-.7,1.49,1.49,0,0,1-.48-1.43.74.74,0,0,1,.31-.51,22.18,22.18,0,0,0,3.84-4.8s2.4-4.29,5.45-5.88C358,35.12,363.85,31.76,366.3,26.15Z"/><path class="cls-1" d="M373.34,34a1.66,1.66,0,0,1,1-.94s1.1-.45,1.19-.12a1.46,1.46,0,0,0,.85,1,4.67,4.67,0,0,0,1.91.18s1.49,0,4.92-4.28c0,0,.2-.17-.06-.46a1.77,1.77,0,0,1-.49-1.54s0-.24.17-.28c0,0,2.06-.84,3.56-1.62a.44.44,0,0,1,.33,0s.31.12.82.27a1.87,1.87,0,0,1,1.48,2,.3.3,0,0,1-.18.24,15.92,15.92,0,0,0-6.8,5.28s-.71.92.07,1.32a1.21,1.21,0,0,1,.75,1.06s0,.5,0,.79a.5.5,0,0,1-.23.45s-.74.39-1.35.78c0,0-1.5,1.26-5.23,1a.4.4,0,0,1-.31-.16A3.64,3.64,0,0,0,374,37.79a1,1,0,0,1-.53-.55A5.28,5.28,0,0,1,373.34,34Z"/><path class="cls-1" d="M419.11,27.38a.85.85,0,0,1,.54-1.26s2.38-.24,2.92.43a31.64,31.64,0,0,0,3.5,3.56,3.59,3.59,0,0,1,1.43,3.45,10.42,10.42,0,0,1-.79,2.6,22,22,0,0,0-1,2.83,8.19,8.19,0,0,1-1.11,2.15s-1.36,1.86-.83,2.67a1.6,1.6,0,0,0,1.21.67s1.43.2,1.7-1.93c0,0,.06-1.46,1.45-1.31a2.61,2.61,0,0,1,2.13,2.16s.14.8-.25,1.08A3.27,3.27,0,0,0,429,46a1.93,1.93,0,0,1-2.05,1.16s-2.44-.15-5.81,3.65a10.2,10.2,0,0,0-1.77,2.66,19.64,19.64,0,0,1-4.57,5.13,27.44,27.44,0,0,0-2.84,3.26,11.83,11.83,0,0,1-6.82,4.42,10.11,10.11,0,0,1-3,.17.83.83,0,0,1-.36-.1A3.58,3.58,0,0,1,400.7,65s-.13-.29.24-.36a13.13,13.13,0,0,1,1.72-.23s2.32,0,6.57-5.23c0,0,2-2.58,2.93-4,0,0,1.32-1.92,2.11-2.8,0,0,.23-.27,0-.47,0,0-.74-.69-1.39-.34A11,11,0,0,1,408,52.82a30,30,0,0,1-4.51-.22.2.2,0,0,1-.18-.17s-.13-.67-.14-.91a.21.21,0,0,1,.08-.17,4.3,4.3,0,0,1,2.43-.78,10.13,10.13,0,0,0,4.05-.3s6.16-1.4,7.17-3.24a17.05,17.05,0,0,0,1.81-4.5,7.37,7.37,0,0,1,1.14-2.08,17,17,0,0,0,2.59-6.63,1.78,1.78,0,0,0-.3-1.1s-1-1.15-1.57-1.82a1.25,1.25,0,0,1-.21-1,1.41,1.41,0,0,0-.31-1.16A5.8,5.8,0,0,1,419.11,27.38Z"/><path class="cls-1" d="M424.18,56.48a.89.89,0,0,1-.44-.9s.07-.75.52-.82c0,0,2.75-.23,4.32.86A3.63,3.63,0,0,1,430,57.94s.29,2-.32,2.77a2.74,2.74,0,0,1-2,.87,10.45,10.45,0,0,1-2.8-.32s-.28-.09-.3-.32c0,0-.11-.87-.15-1.06,0,0-.05-.22.1-.28s1.13-.36,1.19-1.34C425.65,58.26,425.81,57.27,424.18,56.48Z"/><path class="cls-1" d="M455.29,37.84a.87.87,0,0,1,0-1,1.66,1.66,0,0,1,1.8-.66s.31.1.38.25a6.4,6.4,0,0,0,.53,1,2,2,0,0,0,1.55.79,6.84,6.84,0,0,0,1.94,0s.18-.11.35-.61c0,0,.08-.15-.12-.3a1.06,1.06,0,0,1-.44-.93,5.28,5.28,0,0,1,.37-1.27,1.55,1.55,0,0,0-.23-1.44s-1.58-2-1-2.79c0,0,.38-.53,2.11.4a9,9,0,0,1,2.45,2.3,4.33,4.33,0,0,0,2.5,1.63,2,2,0,0,0,1-.23s1-.52,1.71-.84c0,0,1.27-.49,1.42-1.53a.4.4,0,0,0-.06-.31,3.18,3.18,0,0,0-.44-.36.32.32,0,0,0-.3,0,10.17,10.17,0,0,1-2.57,1.35s-.66.22-.88-.14a2.21,2.21,0,0,1-.13-1.62s.1-.34-.21-.4c0,0-1.11-.2-1.13-1.09,0,0,0-.85.52-.83,0,0,3.21.19,4.2-.57a3.85,3.85,0,0,1,1.48-.78,1.75,1.75,0,0,0,1.18-.41A13.32,13.32,0,0,0,476,23.82s2.6-4.53,4.71-3.92a2.25,2.25,0,0,1,1.07,1.1,2,2,0,0,1-.37,2,22.66,22.66,0,0,1-3.12,3.35s-1.52,1.36-1.21,2a2,2,0,0,0,1.59.79s1.63.26,4.76-1.51a1.51,1.51,0,0,0,.46-.39,1.37,1.37,0,0,1,1.22-.51s2,0,3.55.16c0,0,.55,0,.73.3a5.5,5.5,0,0,1,.51,2.09s.06.34-.4.52a8.71,8.71,0,0,0-2.79,2.88s-1.29,2-2.42,3.64a8.11,8.11,0,0,1-7.87,3.25s-.31,0-.32-.2c0,0-.12-.41.41-.77a6.44,6.44,0,0,0,2.93-3s.6-1.94,2.07-1.92a1.44,1.44,0,0,0,1.19-.38,12.77,12.77,0,0,0,2.87-3.56s.12-.17-.1-.27a4.31,4.31,0,0,0-1-.32s-2.57-.34-8.28,3.64c0,0-4.28,3.25-3.07,4.36A4.14,4.14,0,0,1,475,39.23s.18.59-.12.79a5,5,0,0,1-1.53.51,1,1,0,0,1-.62-.15,3.44,3.44,0,0,0-2.75-.92,1.12,1.12,0,0,0-.81.39,4.94,4.94,0,0,1-3.52,2.44s-.28.07-.3-.16c0,0-.06-.39-.14-.87a.36.36,0,0,1,.12-.33,1,1,0,0,0,.52-.74s.23-1.69-.83-1.62c0,0-.71.09-3,2.47a6.88,6.88,0,0,1-5.07,2.11.45.45,0,0,1-.31-.18,7,7,0,0,0-.85-1.1.43.43,0,0,1-.09-.41,9.79,9.79,0,0,0,.41-1.88S456.17,38.94,455.29,37.84Z"/><path class="cls-1" d="M442.3,55.59s-1.29-2.54,2.91-2.67c0,0,4.5.77,13.4-3.81,0,0,14.16-6.73,19.34-7.93a7.93,7.93,0,0,1,3.16,0,2.51,2.51,0,0,1,1.5,2,.41.41,0,0,1-.22.35,18.68,18.68,0,0,0-2.59,2.17s-3.2,3.37-7.33,3.45c0,0-.18,0-.3-.23,0,0-.77-1.38.14-1.81a5.39,5.39,0,0,0,3-2.18.18.18,0,0,0,0-.26,3,3,0,0,0-.59-.16.57.57,0,0,0-.34.08s-7.51,2.86-11.57,5.8a70.3,70.3,0,0,1-9.52,5.6,9.88,9.88,0,0,0-2,1.39,1.18,1.18,0,0,1-.83.32s-1.78-.13-3.33-.11C447.1,57.6,443.55,57.88,442.3,55.59Z"/><path class="cls-1" d="M460.34,56.39a.74.74,0,0,1,.71-.9,12.56,12.56,0,0,0,5-1.68,61.66,61.66,0,0,1,9.73-3.38A28.18,28.18,0,0,0,482.87,48a1.56,1.56,0,0,1,.88-.33s2.69-.2,3.5.36a2,2,0,0,1,.59,2.47,2.67,2.67,0,0,0-.3.73s0,.39-.75.58a44,44,0,0,0-8.31,3.93,12.32,12.32,0,0,1-5,1.34,1,1,0,0,0-.7.29s-.8,1-.57,1.68a9.54,9.54,0,0,1,.22,2.42s0,1.1.1,2a28,28,0,0,1,.05,4.5,4.17,4.17,0,0,0,.23,1.79s.71,1.4,0,2.12a5,5,0,0,1-3.24.86s-1.64,0-4.47-2.14a10.31,10.31,0,0,0-4.87-1.94s-3.49-.34-4.46-2.09c0,0-.59-1.17.35-1.25a4.45,4.45,0,0,1,2,.44,4.7,4.7,0,0,0,2.47.33,7.66,7.66,0,0,1,3.1.41s4.64,1.38,5.16-1a34.52,34.52,0,0,1,1-4.09,3.21,3.21,0,0,0-.77-3.3.63.63,0,0,0-.63-.12,18.82,18.82,0,0,1-4.42.64S460.81,58.7,460.34,56.39Z"/><path class="cls-1" d="M272.24,22.89a1.36,1.36,0,0,1,1.24-1s.68-.09.81.32a2.88,2.88,0,0,0,.54,1,1.31,1.31,0,0,1,.37,1s-.09,3.48-.85,3.78a18.78,18.78,0,0,0-4.27,2.63,15.26,15.26,0,0,1-6.23,2.82s-.32,0-.29-.14a8.75,8.75,0,0,0,0-1.17s-.05-.14.13-.26a18.94,18.94,0,0,0,3.83-3.49,31.55,31.55,0,0,1,3.62-3.72A3.41,3.41,0,0,0,272.24,22.89Z"/><path class="cls-1" d="M259.63,43.67a.75.75,0,0,1,.64-.5s.67,0,.81.84c0,0,.1,1.29.16,1.81a4.54,4.54,0,0,1,.2,2s-.26,3.44-.31,5.55A3.44,3.44,0,0,1,257.62,57s-.55,0-.69-.23a3.84,3.84,0,0,1-.21-3.55,9.76,9.76,0,0,0,.89-2.39A52.23,52.23,0,0,1,259.63,43.67Z"/><path class="cls-1" d="M262.9,56.18s.87-.91,1.36-.5a2.39,2.39,0,0,1,.45,1.68.89.89,0,0,1-.23.63,25,25,0,0,0-1.82,3.61,22.37,22.37,0,0,1-1.2,2.62.2.2,0,0,0,.06.29,1.1,1.1,0,0,0,.5.17,11.65,11.65,0,0,0,1.29.08,13.27,13.27,0,0,1,2.33.34,19.81,19.81,0,0,0,5.74,0,40,40,0,0,0,5.08-1,.23.23,0,0,0,.18-.25s-.21-1.7.38-1.86c0,0,1.58-.29,2,0a4.88,4.88,0,0,0,.64.42,15,15,0,0,0,1.75.79,2.4,2.4,0,0,1,1.36,1.42,3.62,3.62,0,0,1,.09,1,.32.32,0,0,1-.15.24,6.77,6.77,0,0,0-1.18,1.07s-.8,1.16-4.74,1.68c0,0-9.2.65-12.75-1.07A12,12,0,0,0,260.84,66a.44.44,0,0,0-.41.08s-1.63,3.29-4.21,4.48a2,2,0,0,1-1.35.18,1.14,1.14,0,0,1-.63-.43,1.38,1.38,0,0,1-.21-.68s-.13-1.71.2-2a15.43,15.43,0,0,0,1.42-1.71S261,57.76,262.9,56.18Z"/><path class="cls-1" d="M288.78,57.13a10.56,10.56,0,0,0-2-2.34,5.19,5.19,0,0,0-4-.66c-2.84.72-6.59,3.91-6.59,3.91a4.77,4.77,0,0,1-1.93.9,18.06,18.06,0,0,0-2,.71c-.92.28-1.05-.06-1.05-.06-.1-.21.39-.53.39-.53,2.74-2.48,2.23-4,2.23-4-.65-2.9,1.61-8,1.61-8,4-8.81,4.59-12.24,4.59-12.24.17-1.22.59-1.49.59-1.49.45-.33-.1-2-.1-2a.44.44,0,0,0-.3-.22,28,28,0,0,0-3.37-.54,4.23,4.23,0,0,0-2.22.41c-2.28,1.19-5.57,2.84-5.57,2.84a19.74,19.74,0,0,1-2.56,1c-3.18,1.22-2.93,2-2.93,2a18.32,18.32,0,0,0,.53,3.37,8,8,0,0,1,.15,3.54,3.47,3.47,0,0,1-1.37,2.07.48.48,0,0,0-.18.33c-.08.91,0,3.55,0,3.55a1.55,1.55,0,0,0,1.2,1.35,3.48,3.48,0,0,1,2.63,2.47c.13,1,3.07.57,3.07.57.23,0,.2.42.2.42a2.16,2.16,0,0,1-1.15,1.42c-1,.57-.91,1.08-.91,1.08a14.81,14.81,0,0,1-.17,3.06.69.69,0,0,0,.2.61c1.09,1.19,2,2.39,2,2.39a2,2,0,0,0,.82.46,4.57,4.57,0,0,0,3.77-.42A45.46,45.46,0,0,0,282,56.18a.48.48,0,0,1,.42-.24c1.4,0,1.5.53,1.5.53a6,6,0,0,1,0,1.71c-.11.41.18.44.18.44a1.9,1.9,0,0,1,1.44,1,.31.31,0,0,0,.3.21,5.79,5.79,0,0,0,3.36-1.15C289.57,58.38,288.78,57.13,288.78,57.13Zm-18.44-5.82a6.67,6.67,0,0,0-2.4-2,6.46,6.46,0,0,1-2.28-2.13.2.2,0,0,1,.09-.3,5.79,5.79,0,0,0,1.89-4.76s-.19-3.59-2.12-4.78c0,0-.24-.11.06-.22a5.67,5.67,0,0,1,2.63-.1,3.94,3.94,0,0,0,2.62-.65s3.76-1.86,5.37-2.95a.54.54,0,0,1,.45-.11s.4.22.3.35a42.9,42.9,0,0,0-3.82,9.62,45.64,45.64,0,0,0-1.53,5.57,7.53,7.53,0,0,1-.91,2.38A.2.2,0,0,1,270.34,51.31Z"/></g></g></svg>